<svg xmlns="http://www.w3.org/2000/svg" xmlns:xlink="http://www.w3.org/1999/xlink" viewBox="0 0 319.885 56.192">
  <defs>
    <linearGradient id="a">
      <stop offset="0" stop-color="#0774b6"/>
      <stop offset="1" stop-color="#e8026c"/>
    </linearGradient>
    <linearGradient xlink:href="#a" id="b" x1="288.184" x2="288.184" y1="98.886" y2="155.078" gradientUnits="userSpaceOnUse"/>
  </defs>
  <path fill="#ffff" d="M64.192 0v56.192h199.501V0Zm4 4h191.501v48.192h-191.5Z"/>
  <path fill="#ffff" d="M82.15 29.864c.018-2.742 1.57-4.402 4.041-4.402 2.508 0 3.987 1.66 3.969 4.402V45.45h9.958V27.772c.018-6.026-3.789-10.391-9.67-10.391-4.076 0-7.306 2.128-8.514 5.628h-.289v-5.268h-9.453v27.71h9.958zm39.4-12.123h-4.763v-6.638h-9.958v6.638h-3.536v7.216h3.536v12.52c-.073 5.809 3.517 8.75 10.39 8.37a20.365 20.365 0 0 0 4.835-.866l-1.443-6.999c-.379.09-1.353.289-1.948.289-1.3 0-1.876-.578-1.876-1.732V24.957h4.762zm29.08 9.02c-.253-5.863-5.124-9.38-13.134-9.38-7.92 0-12.808 3.247-12.772 9.02-.036 4.365 2.796 7.161 8.443 8.153l4.906.866c2.165.397 3.14.975 3.175 2.02-.036 1.155-1.353 1.805-3.175 1.805-2.255 0-3.842-.974-4.113-2.742h-9.885c.54 5.682 5.448 9.453 13.926 9.453 7.667 0 13.314-3.735 13.35-9.67-.036-4.095-2.778-6.476-8.443-7.504l-5.628-1.01c-2.11-.38-2.706-1.137-2.67-1.949-.036-1.154 1.389-1.804 3.103-1.804 1.966 0 3.608 1.047 3.752 2.742zm17.895 19.195c8.208 0 13.24-4.709 13.349-12.051h-9.236c-.217 2.904-1.786 4.474-3.97 4.474-2.615 0-4.329-2.237-4.329-6.783s1.714-6.783 4.33-6.783c2.2 0 3.698 1.57 3.969 4.474h9.236c-.054-7.216-5.195-11.906-13.35-11.906-9.02 0-14.36 5.772-14.36 14.287s5.34 14.288 14.36 14.288zm53.109-18.978c0-12.34-7.938-18.978-17.968-18.978-10.102 0-17.967 6.639-17.967 18.978 0 12.267 7.865 18.978 17.967 18.978 2.255 0 4.402-.343 6.386-.993l2.778 3.23h8.876l-5.61-6.783c3.427-3.212 5.538-8.064 5.538-14.432zM200.13 31.74l4.131 5.466c-.198.018-.396.018-.595.018-4.979 0-7.649-3.608-7.649-10.246 0-6.639 2.67-10.247 7.65-10.247 4.978 0 7.648 3.608 7.648 10.247 0 2.976-.541 5.34-1.57 7.053l-1.821-2.29zm23.452-15.153h11.113V45.45h9.885V16.587h11.113V8.505h-32.11z" aria-label="ntscQT"/>
  <path fill="#00214c" d="M0 38.077h28.096v18.115H0z"/>
  <path d="M28.096 38.077h28.096v18.115H28.096z"/>
  <path fill="#fff" d="M0 0h8.027v38.077H0z"/>
  <path fill="#ff0" d="M8.027 0h8.027v38.077H8.027z"/>
  <path fill="#0ff" d="M16.055 0h8.027v38.077h-8.027z"/>
  <path fill="#0f0" d="M24.082 0h8.027v38.077h-8.027z"/>
  <path fill="#f0f" d="M32.11 0h8.027v38.077H32.11z"/>
  <path fill="red" d="M40.137 0h8.027v38.077h-8.027z"/>
  <path fill="#00f" d="M48.165 0h8.027v38.077h-8.027z"/>
  <path fill="url(#b)" d="M279.01 98.886v18.921h-18.922v18.35h18.921v18.921h18.35v-18.92h18.921v-18.35h-18.92V98.885Z" transform="translate(3.605 -98.886)"/>
</svg>
