<svg xmlns="http://www.w3.org/2000/svg" xmlns:xlink="http://www.w3.org/1999/xlink" xml:space="preserve" width="1280" height="640" viewBox="0 0 338.667 169.333">
  <defs>
    <linearGradient id="a">
      <stop offset="0" stop-color="#0774b6"/>
      <stop offset="1" stop-color="#e8026c"/>
    </linearGradient>
    <linearGradient xlink:href="#a" id="b" x1="288.184" x2="288.184" y1="98.886" y2="155.078" gradientUnits="userSpaceOnUse"/>
  </defs>
  <path fill="#131313" d="M0 2.43h338.667v166.903H0Z"/>
  <path fill="silver" d="M0 0h48.381v64.715H0Z"/>
  <path fill="#c0c000" d="M48.38 0h48.382v64.715H48.38Z"/>
  <path fill="#00c0c0" d="M96.762 0h48.38v64.715h-48.38z"/>
  <path fill="#00c000" d="M145.143 0h48.38v64.715h-48.38z"/>
  <path fill="#c000c0" d="M193.524 0h48.38v64.715h-48.38z"/>
  <path fill="#c00000" d="M241.905 0h48.38v64.715h-48.38z"/>
  <path fill="#0000c0" d="M290.286 0h48.38v64.715h-48.38ZM0 64.715h48.381v21.167H0Z"/>
  <path fill="#c000c0" d="M96.762 64.715h48.38v21.167h-48.38z"/>
  <path fill="#00c0c0" d="M193.524 64.715h48.38v21.167h-48.38z"/>
  <path fill="silver" d="M290.286 64.715h48.38v21.167h-48.38z"/>
  <path fill="#00214c" d="M0 85.882h60.476v21.167H0Z"/>
  <path fill="#fff" d="M60.476 85.882h60.476v21.167H60.476Z"/>
  <path fill="#32006a" d="M120.952 85.882h60.477v21.167h-60.477Z"/>
  <path fill="#090909" d="M241.905 85.882h16.127v21.167h-16.127z"/>
  <path fill="#1d1d1d" d="M274.159 85.882h16.127v21.167h-16.127z"/>
  <path fill="#fff" d="M0 85.882h24.19v21.167H0zm110.342 24.717v34.62h122.911v-34.62Zm2.464 2.464H230.79v29.691H112.807z"/>
  <path fill="#fff" d="M121.406 128.998c.01-1.69.967-2.712 2.49-2.712 1.545 0 2.456 1.023 2.445 2.712v9.602h6.135v-10.89c.01-3.713-2.335-6.402-5.958-6.402-2.511 0-4.501 1.311-5.245 3.468h-.178v-3.246h-5.824v17.072h6.135zm24.274-7.469h-2.935v-4.09h-6.135v4.09h-2.178v4.446h2.178v7.713c-.045 3.58 2.167 5.391 6.402 5.157a12.547 12.547 0 0 0 2.978-.534l-.889-4.312c-.233.056-.833.178-1.2.178-.8 0-1.156-.356-1.156-1.067v-7.135h2.934zm17.916 5.557c-.156-3.612-3.157-5.779-8.092-5.779-4.88 0-7.89 2-7.869 5.557-.022 2.69 1.723 4.412 5.202 5.023l3.023.534c1.334.244 1.934.6 1.956 1.244-.022.712-.834 1.112-1.956 1.112-1.39 0-2.367-.6-2.534-1.689h-6.09c.332 3.5 3.356 5.824 8.58 5.824 4.723 0 8.202-2.301 8.224-5.958-.022-2.522-1.711-3.99-5.202-4.623l-3.467-.622c-1.3-.234-1.667-.7-1.645-1.2-.022-.712.856-1.112 1.912-1.112 1.211 0 2.223.645 2.311 1.69zm11.025 11.826c5.057 0 8.157-2.901 8.224-7.424h-5.69c-.134 1.789-1.1 2.756-2.446 2.756-1.611 0-2.667-1.378-2.667-4.179 0-2.8 1.056-4.179 2.668-4.179 1.355 0 2.278.967 2.445 2.756h5.69c-.033-4.445-3.2-7.335-8.225-7.335-5.557 0-8.847 3.556-8.847 8.802 0 5.246 3.29 8.803 8.847 8.803zm32.72-11.692c0-7.603-4.89-11.692-11.07-11.692-6.224 0-11.07 4.09-11.07 11.692 0 7.557 4.846 11.692 11.07 11.692 1.39 0 2.712-.211 3.934-.612l1.712 1.99h5.468l-3.456-4.179c2.111-1.979 3.412-4.968 3.412-8.891zm-13.248 2.934 2.545 3.367c-.122.011-.244.011-.367.011-3.067 0-4.712-2.223-4.712-6.312 0-4.09 1.645-6.313 4.713-6.313 3.067 0 4.712 2.223 4.712 6.313 0 1.833-.334 3.29-.968 4.345l-1.122-1.41zm14.448-9.336h6.847V138.6h6.09v-17.782h6.847v-4.98h-19.783z" aria-label="ntscQT"/>
  <path fill="#00214c" d="M70.794 134.058h17.31v11.16h-17.31Z"/>
  <path d="M88.104 134.058h17.31v11.16h-17.31Z"/>
  <path fill="#fff" d="M70.794 110.599h4.945v23.459h-4.945Z"/>
  <path fill="#ff0" d="M75.74 110.599h4.945v23.459h-4.946Z"/>
  <path fill="#0ff" d="M80.685 110.599h4.946v23.459h-4.946z"/>
  <path fill="#0f0" d="M85.63 110.599h4.946v23.459H85.63z"/>
  <path fill="#f0f" d="M90.577 110.599h4.945v23.459h-4.945Z"/>
  <path fill="red" d="M95.522 110.599h4.945v23.459h-4.945z"/>
  <path fill="#00f" d="M100.468 110.599h4.945v23.459h-4.945z"/>
  <path fill="url(#b)" d="M279.01 98.886v18.921h-18.922v18.35h18.921v18.921h18.35v-18.92h18.921v-18.35h-18.92V98.885Z" transform="translate(73.015 49.676) scale(.6161)"/>
</svg>
